<?xml version="1.0" standalone="yes"?>
<svg width="1077" height="1079">
<path style="fill:#2d8abd; stroke:none;" d="M0 0L0 1079L1077 1079L1077 0L0 0z"/>
<path style="fill:#00c0f1; stroke:none;" d="M751 120C761.876 134.219 780.244 145.294 794 156.753C798.539 160.534 804.957 168.334 811 169.276C820.898 170.82 836.342 160.636 846 158C846 149.932 848.78 135.72 845.397 128.379C843.623 124.531 837.536 122.526 834 120.753C824.483 115.982 808.627 103.795 798 103.603C793.685 103.525 789.017 106.622 785 107.997C773.63 111.889 762.429 116.281 751 120z"/>
<path style="fill:#c6e2e7; stroke:none;" d="M186 123C194.051 121.115 195.9 120.624 204 123C202.263 112.723 187.678 112.682 186 123z"/>
<path style="fill:#83bcd5; stroke:none;" d="M387 126L387 127L394 127L387 126z"/>
<path style="fill:#65aacc; stroke:none;" d="M547 126L547 145L548 145L547 126z"/>
<path style="fill:#c6e2e7; stroke:none;" d="M548 126L548 158L553 158L554 126L548 126M42 127L58 171L66 171L82 127C70.0865 127.141 63.9116 152.558 63 163L61 163C60.0883 152.558 53.9135 127.141 42 127M100 127.638C73.0655 135.423 86.6722 179.078 115 170.196C140.512 162.197 126.952 119.848 100 127.638M175 157C165.653 157.306 160.368 169.738 150.001 164.682C136.738 158.214 137.28 135.615 153 132.648C162.827 130.794 166.786 141.89 176 142C168.573 116.996 132.054 125.623 134.093 151C135.869 173.094 169.425 180.191 175 157z"/>
<path style="fill:#65aacc; stroke:none;" d="M182 127L182 171L183 171C183 158.52 186.81 138.463 182 127z"/>
<path style="fill:#c6e2e7; stroke:none;" d="M183 127L183 171L207 171L207 166L189 166L189 151L205 151L205 147L189 147L189 132L207 132L207 127L183 127z"/>
<path style="fill:#65aacc; stroke:none;" d="M207 127L207 132L208 132L207 127z"/>
<path style="fill:#c6e2e7; stroke:none;" d="M226 127L237.192 158L241.879 169.397L250 171L265 127L258 127L246 163C241.537 152.933 238.945 127.154 226 127z"/>
<path style="fill:#7bb7d2; stroke:none;" d="M311 127L311 171L312 171C312 158.52 315.81 138.463 311 127z"/>
<path style="fill:#9ecbdc; stroke:none;" d="M312 127L312 128L317 128L317 171L318 171L318 127L312 127z"/>
<path style="fill:#8bc0d7; stroke:none;" d="M340 127L340 171L341 171C341 158.52 344.81 138.463 340 127z"/>
<path style="fill:#c6e2e7; stroke:none;" d="M341 127L341 171L365 171L365 163L351 163L351 127L341 127z"/>
<path style="fill:#7bb7d2; stroke:none;" d="M351 127L351 163L352 163C352 152.613 355.011 136.56 351 127z"/>
<path style="fill:#c6e2e7; stroke:none;" d="M383 127.649C355.441 135.962 370.784 178.911 399 170.197C426.42 161.729 410.718 119.288 383 127.649z"/>
<path style="fill:#65aacc; stroke:none;" d="M418 127L418 171L419 171C419 158.52 422.81 138.463 418 127z"/>
<path style="fill:#c6e2e7; stroke:none;" d="M419 127L419 171L429 171L429 145C439.161 155.736 440.251 171 457 171L457 128L448 128L448 154C437.494 142.864 436.636 127 419 127z"/>
<path style="fill:#55a1c8; stroke:none;" d="M446 127L446 153L447 153L446 127z"/>
<path style="fill:#add4e0; stroke:none;" d="M447 127L446 154C450.772 149.83 448 134.17 448 128L457 128L457 171L458 171L458 127L447 127z"/>
<path style="fill:#c6e2e7; stroke:none;" d="M506 146L484 146L484 154L497 154C495.229 156.299 493.514 158.609 490.984 160.144C477.325 168.427 467.765 141.677 483.004 137.529C489.043 135.885 498.783 142 506 142C503.341 127.321 483.389 122.433 472.004 130.638C464.025 136.389 463.206 144.855 464.105 154C465.745 170.692 487.999 176.536 499.957 166.61C506.624 161.075 506 153.859 506 146z"/>
<path style="fill:#65aacc; stroke:none;" d="M511 127L511 171L512 171C512 158.52 515.81 138.463 511 127z"/>
<path style="fill:#c6e2e7; stroke:none;" d="M512 127L512 171L539 171L539 163L522 163L522 153L537 153L537 145L523 145L523 136L539 136L539 127L512 127z"/>
<path style="fill:#7bb7d2; stroke:none;" d="M539 127L539 136L540 136L539 127z"/>
<path style="fill:#c6e2e7; stroke:none;" d="M267 171L274 171C277.931 158.758 285.718 161 297 161L299 171L306 171L291 128C277.099 128.049 270.267 159.032 267 171M312 128L312 171L317 171L317 128L312 128z"/>
<path style="fill:#00abe9; stroke:none;" d="M846 128L846 157L880 145C872.089 138.445 856.076 129.818 846 128z"/>
<path style="fill:#7fb8d4; stroke:none;" d="M933 128L933 129L940 129L933 128z"/>
<path style="fill:#c6e2e7; stroke:none;" d="M843 158L843 159L846 159L846 191L913 167L885 214C907.197 207.654 929.347 198.519 951 190.424C960.091 187.026 972.416 185.031 979.906 178.61C984.961 174.275 985 169.158 985 163C985 143.503 963.228 130.56 945 129.093C909.07 126.203 877.019 150.126 843 158z"/>
<path style="fill:#65aacc; stroke:none;" d="M103 132L103 133L109 133L103 132M152 132L152 133L157 133L152 132z"/>
<path style="fill:#2d8abd; stroke:none;" d="M101.015 133.653C83.6191 139.246 92.366 171.82 111.999 165.146C131.088 158.657 121.619 127.027 101.015 133.653M286 136L280 156L294 156L286 136M386.09 137.858C373.833 143.22 381.081 165.732 394.985 160.258C408.52 154.928 400.489 131.56 386.09 137.858z"/>
<path style="fill:#8bc0d7; stroke:none;" d="M553 137L553 158L554 158L553 137M92 142L91 153L92 153L92 142z"/>
<path style="fill:#97c7da; stroke:none;" d="M85 143L85 154L86 154L85 143z"/>
<path style="fill:#8bc0d7; stroke:none;" d="M463 143L463 153L464 153L463 143z"/>
<path style="fill:#7bb7d2; stroke:none;" d="M128 144L128 154L129 154L128 144M140 144L140 153L141 153L140 144M368 144L368 154L369 154L368 144z"/>
<path style="fill:#8bc0d7; stroke:none;" d="M523 144L523 145L537 145L537 153L538 153L538 144L523 144z"/>
<path style="fill:#9ecbdc; stroke:none;" d="M429 145L429 171L430 171L431 145L429 145z"/>
<path style="fill:#65aacc; stroke:none;" d="M483 146L483 154L484 154L483 146z"/>
<path style="fill:#7bb7d2; stroke:none;" d="M506 146L506 158L507 158L506 146M205 147L205 151L206 151L205 147z"/>
<path style="fill:#65aacc; stroke:none;" d="M189 151L189 152L205 152L189 151z"/>
<path style="fill:#8ec2d8; stroke:none;" d="M522 153L522 163L539 163L539 171L540 171L540 162L523 162L522 153M279 154C279.982 158.584 292.921 158.608 295 155C289.601 156.285 283.975 156.767 279 154z"/>
<path style="fill:#64a9cc; stroke:none;" d="M985 155L985 170L986 170L985 155z"/>
<path style="fill:#65aacc; stroke:none;" d="M169 156L169 157L175 159C176.356 155.402 171.535 156.01 169 156M548 158L548 159L553 159L548 158z"/>
<path style="fill:#deecf1; stroke:none;" d="M705 173C717.592 194.784 740.866 214.462 757.914 233C762.603 238.098 769.942 250.64 777.001 252.071C780.247 252.729 784.055 250.525 787 249.424C794.545 246.604 805.228 244.759 811.697 239.914C821.724 232.404 818.213 210.149 825.854 200.394C829.707 195.474 840.198 193.552 846 192L846 159C822.656 160.067 801.963 178.339 779 181.153C774.915 181.653 770.612 178.562 767 177C757.262 172.79 747.312 166.219 737 163.649C727.864 161.371 713.705 170.163 705 173z"/>
<path style="fill:#81bad4; stroke:none;" d="M61 161L61 163L63 163L63 161L61 161z"/>
<path style="fill:#90c3d8; stroke:none;" d="M388 161L388 162L392 162L388 161z"/>
<path style="fill:#8bc0d7; stroke:none;" d="M365 163L365 171L366 171L365 163z"/>
<path style="fill:#c6e2e7; stroke:none;" d="M547 164L547 171L555 171L555 164L547 164z"/>
<path style="fill:#65aacc; stroke:none;" d="M207 166L207 171L208 171L207 166z"/>
<path style="fill:#00c0f1; stroke:none;" d="M846 278L847 278L895.2 198L913 167L865 184.343L847.028 191.702L846 215L846 278z"/>
<path style="fill:#8ec2d8; stroke:none;" d="M102 171L102 172L110 172L102 171M151 171L151 172L159 172L151 171M387 171L387 172L394 172L387 171M481 171L481 172L488 172L481 171z"/>
<path style="fill:#c6e2e7; stroke:none;" d="M245 201C250.865 199.307 257.467 196.705 258 190C252.447 192.021 246.023 194.674 245 201z"/>
<path style="fill:#7bb7d2; stroke:none;" d="M258 190L258 194L259 194L258 190z"/>
<path style="fill:#25d9f8; stroke:none;" d="M796 297L831 285L844.972 278.582L846 255L846 192L825.854 199.649L815.86 230L796 297z"/>
<path style="fill:#65aacc; stroke:none;" d="M244 197L246 202L244 197z"/>
<path style="fill:#7bb7d2; stroke:none;" d="M45 204L45 248L46 248C46 235.52 49.8102 215.463 45 204z"/>
<path style="fill:#c6e2e7; stroke:none;" d="M46 204L46 248L51 248L51 230C56.56 230 63.8855 231.234 68.9568 228.543C76.7431 224.411 76.9999 211.886 69.8951 206.995C63.2649 202.43 53.6052 204 46 204z"/>
<path style="fill:#7bb7d2; stroke:none;" d="M121 204L121 248L122 248C122 235.52 125.81 215.463 121 204z"/>
<path style="fill:#c6e2e7; stroke:none;" d="M122 204L122 248L127 248L127 230C139.494 230.409 138.019 247.845 151 248L140 230C149.756 227.654 156.349 215.088 146.891 207.51C140.341 202.262 129.8 204 122 204z"/>
<path style="fill:#7bb7d2; stroke:none;" d="M198 204L198 248L199 248C199 235.52 202.81 215.463 198 204z"/>
<path style="fill:#c6e2e7; stroke:none;" d="M199 204L199 248C206.49 248 217.289 249.953 223.956 245.911C232.593 240.673 229.53 228.91 221 226C228.326 221.229 231.777 210.329 221.995 205.573C215.467 202.398 206.071 204 199 204z"/>
<path style="fill:#65aacc; stroke:none;" d="M235 204L235 248L236 248C236 235.52 239.81 215.463 235 204z"/>
<path style="fill:#c6e2e7; stroke:none;" d="M236 204L236 248L260 248L260 243L242 243L242 228L258 228L258 224L242 224L242 209L260 209L260 204L236 204z"/>
<path style="fill:#65aacc; stroke:none;" d="M260 204L260 209L261 209L260 204z"/>
<path style="fill:#c6e2e7; stroke:none;" d="M267 204L267 248L273 248L273 215L274 215C278.146 224.609 289.682 247.63 301 248L301 205L296 205L296 238C287.387 228.87 281.208 204.462 267 204z"/>
<path style="fill:#9ecbdc; stroke:none;" d="M295 204L294 238C299.47 233.22 296 212.211 296 205L301 205L295 204z"/>
<path style="fill:#7bb7d2; stroke:none;" d="M301 204L301 248L302 248C302 235.52 305.81 215.463 301 204z"/>
<path style="fill:#c6e2e7; stroke:none;" d="M308 236C310.86 248.454 332.721 254.628 337.347 239.996C342.075 225.041 323.705 226.8 317.438 218.892C313.725 214.206 318.071 207.344 323.985 209.118C329.433 210.752 330.664 214.924 337 215C334.851 204.357 314.648 197.943 309.742 210.043C302.942 226.818 323.082 224.592 329.393 233.214C333.324 238.585 326.715 245.381 321.019 242.778C315.383 240.202 314.943 236.082 308 236M360 204L360 248L366 248L366 230C371.536 230 379.064 231.283 383.945 228.142C391.016 223.592 390.691 211.343 383.956 206.728C377.511 202.311 367.388 204 360 204M409 204.533C392.932 208.413 389.19 230.472 399.34 241.906C404.851 248.115 414.147 249.32 422 247.61C449.03 241.721 436.914 197.793 409 204.533M444 204L444 248L450 248L450 230C462.044 230.916 460.886 247.845 474 248L463 230C473.177 227.342 478.747 214.041 468.815 206.995C462.102 202.232 451.759 204 444 204M78 248L89.2245 238.603L107 238C108.024 243.944 109.572 247.786 116 248C114.887 236.895 108.539 225.432 104.681 215C103.24 211.103 102.149 205.117 97 205.117C91.8514 205.117 90.7598 211.103 89.3187 215C85.4427 225.481 79.1201 236.824 78 248M154 248L161 248C164.931 235.758 172.718 238 184 238L186 248L193 248L178 205C164.099 205.049 157.267 236.032 154 248z"/>
<path style="fill:#90c3d8; stroke:none;" d="M320 208L320 209L324 209L320 208z"/>
<path style="fill:#9ecbdc; stroke:none;" d="M51 209L51 226L52 226L51 209z"/>
<path style="fill:#65aacc; stroke:none;" d="M52 209L52 210L62 210L52 209z"/>
<path style="fill:#9ecbdc; stroke:none;" d="M127 209L127 226L128 226L128 210L138 210L127 209z"/>
<path style="fill:#8ec2d8; stroke:none;" d="M204 209L204 224L215 224L215 223L205 223L204 209z"/>
<path style="fill:#65aacc; stroke:none;" d="M205 209L205 210L216 210L205 209M366 209L366 226L376 226L376 225L367 225L367 210L376 210L366 209M412 209L412 210L418 210L412 209z"/>
<path style="fill:#8ec2d8; stroke:none;" d="M450 209L450 210L461 210L450 209z"/>
<path style="fill:#2d8abd; stroke:none;" d="M52 210L52 225C55.8291 225 61.4317 225.997 64.8519 223.972C69.0973 221.458 69.0973 213.542 64.8519 211.028C61.4318 209.003 55.829 210 52 210M128 210L128 226C132.078 226 137.178 226.717 140.891 224.682C146.064 221.848 146.163 213.887 140.941 211.028C137.367 209.07 131.943 210 128 210M205 210L205 223C209.065 223 215.133 224.083 218.721 221.821C222.449 219.471 222.746 213.338 218.852 211.028C215.225 208.876 209.07 210 205 210M367 210L367 225C370.87 225 376.327 225.927 379.772 223.821C383.946 221.268 384.114 213.703 379.852 211.179C376.337 209.098 370.923 210 367 210M409.001 210.742C391.078 217.625 401.928 249.357 420.999 241.852C439.029 234.757 429.31 202.943 409.001 210.742z"/>
<path style="fill:#65aacc; stroke:none;" d="M450 210L450 226L451 226L450 210z"/>
<path style="fill:#2d8abd; stroke:none;" d="M451 210L451 226C455.124 226 460.283 226.657 463.852 224.142C467.842 221.33 468.303 213.814 463.852 211.179C460.337 209.098 454.923 210 451 210z"/>
<path style="fill:#9ccadb; stroke:none;" d="M308 211L308 219L309 219L308 211z"/>
<path style="fill:#68accd; stroke:none;" d="M228 212L228 218L229 218L228 212z"/>
<path style="fill:#6dafce; stroke:none;" d="M96 213L96 215L98 215L98 213L96 213z"/>
<path style="fill:#2d8abd; stroke:none;" d="M173 213L167 233L181 233L173 213z"/>
<path style="fill:#7bb7d2; stroke:none;" d="M68 214L68 220L69 220L68 214z"/>
<path style="fill:#65aacc; stroke:none;" d="M151 214L151 220L152 220L151 214M389 214L389 221L390 221L389 214z"/>
<path style="fill:#8bc0d7; stroke:none;" d="M467 214L467 220L468 220L467 214z"/>
<path style="fill:#2d8abd; stroke:none;" d="M96 215L90 233L104 233L98 215L96 215z"/>
<path style="fill:#65aacc; stroke:none;" d="M273 215L273 248L274 248C274 239.359 277.24 222.334 273 215M430 220L430 231L431 231L430 220M393 223L393 230L394 230L393 223z"/>
<path style="fill:#7bb7d2; stroke:none;" d="M258 224L258 228L259 228L258 224z"/>
<path style="fill:#65aacc; stroke:none;" d="M52 225L52 226L61 226L52 225z"/>
<path style="fill:#2d8abd; stroke:none;" d="M205 228L205 243C209.056 243 214.146 243.789 217.981 242.258C223.153 240.192 224.66 233.247 219.852 229.858C215.841 227.031 209.632 228 205 228z"/>
<path style="fill:#65aacc; stroke:none;" d="M242 228L242 229L258 229L242 228z"/>
<path style="fill:#9ecbdc; stroke:none;" d="M51 230L51 248L52 248L52 231L63 231L51 230M127 230L127 248L128 248L127 230z"/>
<path style="fill:#65aacc; stroke:none;" d="M128 230L128 231L134 231L128 230z"/>
<path style="fill:#8ec2d8; stroke:none;" d="M366 230L366 231L377 231L366 230z"/>
<path style="fill:#65aacc; stroke:none;" d="M450 230L450 248L451 248L451 231L456 231L450 230z"/>
<path style="fill:#8ec2d8; stroke:none;" d="M166 231C166.982 235.584 179.921 235.608 182 232C176.601 233.285 170.975 233.767 166 231z"/>
<path style="fill:#65aacc; stroke:none;" d="M366 231L366 248L367 248L366 231z"/>
<path style="fill:#8ec2d8; stroke:none;" d="M89 232C91.8702 235.285 102.13 235.285 105 232L89 232z"/>
<path style="fill:#65aacc; stroke:none;" d="M229 233L229 239L230 239L229 233M260 243L260 248L261 248L260 243z"/>
<path style="fill:#8ec2d8; stroke:none;" d="M320 248L320 249L327 249L320 248M411 248L411 249L419 249L411 248z"/>
<path style="fill:#55a1c8; stroke:none;" d="M358 281L358 306L359 306L358 281z"/>
<path style="fill:#c6e2e7; stroke:none;" d="M359 281L359 313L364 313L365 281L359 281z"/>
<path style="fill:#8ec2d8; stroke:none;" d="M57 284L70 283C66.3528 281.47 59.7579 280.844 57 284z"/>
<path style="fill:#c6e2e7; stroke:none;" d="M131 310C127.616 310 123.374 309.343 120.17 310.6C116.084 312.201 113.975 316.326 109.001 315.728C98.4012 314.452 97.1664 297.627 106.015 293.183C112.151 290.102 122.588 298 130 298C128.845 276.902 92.4519 276.47 89.2137 297C87.9253 305.169 88.6287 315.652 95.1883 321.471C107.181 332.108 127.693 325.28 131 310z"/>
<path style="fill:#8bc0d7; stroke:none;" d="M136 282L136 326L137 326C137 313.52 140.81 293.463 136 282z"/>
<path style="fill:#c6e2e7; stroke:none;" d="M137 282L137 326L164 326L164 318L147 318L147 308L162 308L162 300L147 300L147 291L164 291L164 282L137 282z"/>
<path style="fill:#8bc0d7; stroke:none;" d="M169 282L169 326L170 326C170 313.52 173.81 293.463 169 282z"/>
<path style="fill:#c6e2e7; stroke:none;" d="M170 282L170 326L194 326L194 318L180 318L180 282L170 282z"/>
<path style="fill:#7bb7d2; stroke:none;" d="M180 282L180 318L181 318C181 307.613 184.011 291.56 180 282z"/>
<path style="fill:#55a1c8; stroke:none;" d="M198 282L198 326L199 326C199 313.52 202.81 293.463 198 282z"/>
<path style="fill:#c6e2e7; stroke:none;" d="M199 282L199 326L226 326L226 318L210 318L210 308L225 308L225 300L210 300L210 291L227 291L227 282L199 282z"/>
<path style="fill:#9ecbdc; stroke:none;" d="M232 282L232 326L233 326L233 283L255 283L232 282z"/>
<path style="fill:#8ec2d8; stroke:none;" d="M284 282L284 283L297 283L284 282z"/>
<path style="fill:#8bc0d7; stroke:none;" d="M316 282L316 326L317 326C317 313.52 320.81 293.463 316 282z"/>
<path style="fill:#c6e2e7; stroke:none;" d="M317 282L317 326L327 326L327 310L338.637 324.972L351 326L341 309C351.242 304.482 355.627 290.536 343.996 284.279C336.337 280.158 325.4 282 317 282M42 326C44.8796 326 48.9233 326.689 51.5818 325.397C54.2506 324.1 54.6622 320.562 57.2245 319.028C64.1406 314.887 72.8012 318.479 74 326L86 326L75.3434 295L69.5818 283.603L56.8434 284.742L52.0502 296L42 326M233 283L233 326L243 326L243 310L254.61 324.972L267 326L257 309C266.281 304.906 270.976 290.13 259.985 284.457C252.839 280.768 240.87 283 233 283M268 326L280 326C282.418 315.977 290.42 318 299 318L301 326L313 326L298 283L284.419 284.028L278.692 296L268 326z"/>
<path style="fill:#65aacc; stroke:none;" d="M147 291L147 300L162 300L162 299L148 299L147 291M243 291L243 302L244 302L244 292L251 292L243 291z"/>
<path style="fill:#7bb7d2; stroke:none;" d="M327 291L327 302L328 302L328 292L335 292L327 291z"/>
<path style="fill:#2d8abd; stroke:none;" d="M244 292L244 302C257.176 301.99 257.38 292.009 244 292z"/>
<path style="fill:#92c4d9; stroke:none;" d="M266 292L266 300L267 300L266 292z"/>
<path style="fill:#2d8abd; stroke:none;" d="M328 292L328 302C341.198 301.99 341.413 292.002 328 292z"/>
<path style="fill:#7bb7d2; stroke:none;" d="M364 292L364 313L365 313L364 292M339 294L339 299L340 299L339 294z"/>
<path style="fill:#65aacc; stroke:none;" d="M130 295C127.52 298.825 123.192 298 119 298L119 299L131 299L130 295z"/>
<path style="fill:#2d8abd; stroke:none;" d="M290 296L286 310L295 310L290 296M63 297L59 310L68 310L63 297z"/>
<path style="fill:#8bc0d7; stroke:none;" d="M88 298L88 308L89 308L88 298z"/>
<path style="fill:#65aacc; stroke:none;" d="M210 299L210 300L225 300L210 299M162 300L162 308L163 308L162 300z"/>
<path style="fill:#8ec2d8; stroke:none;" d="M147 308L147 318L164 318L164 317L148 317L147 308z"/>
<path style="fill:#65aacc; stroke:none;" d="M243 310L243 326L244 326L243 310z"/>
<path style="fill:#7bb7d2; stroke:none;" d="M327 310L327 326L328 326L327 310z"/>
<path style="fill:#65aacc; stroke:none;" d="M359 313L359 314L364 314L359 313z"/>
<path style="fill:#8ec2d8; stroke:none;" d="M210 317L210 318L226 318L226 326L227 326L227 317L210 317z"/>
<path style="fill:#8bc0d7; stroke:none;" d="M194 318L194 326L195 326L194 318z"/>
<path style="fill:#7bb7d2; stroke:none;" d="M72.3333 319.667L72.6667 320.333L72.3333 319.667z"/>
<path style="fill:#c6e2e7; stroke:none;" d="M358 319L358 326L366 326L366 319L358 319z"/>
<path style="fill:#8ec2d8; stroke:none;" d="M106 326L106 327L114 327L106 326z"/>
<path style="fill:#166ea1; stroke:none;" d="M705 338L705 339L846 339C835.02 334.393 815.944 338 804 338L705 338z"/>
<path style="fill:#0f5a89; stroke:none;" d="M846 338L846 339L985 339L985 355L986 355L986 338L846 338z"/>
<path style="fill:#005285; stroke:none;" d="M705 339L705 355L846 355L846 339L705 339z"/>
<path style="fill:#003e67; stroke:none;" d="M846 339L846 355L985 355L985 339L846 339z"/>
<path style="fill:#2279aa; stroke:none;" d="M705 355L705 356L985 356L960 355L903 355L705 355z"/>
<path style="fill:#6c93b3; stroke:none;" d="M43 466L43 467L52 467L43 466M348 466L348 467L358 467L348 466z"/>
<path style="fill:#2d9b7e; stroke:none;" d="M41 467L41 489L42 489L43 467L41 467z"/>
<path style="fill:#bbaa57; stroke:none;" d="M43 467L43 468L57 469L43 467M348 467L348 468L359 468L348 467z"/>
<path style="fill:#c4a29f; stroke:none;" d="M359 467L362 469L359 467z"/>
<path style="fill:#74ad40; stroke:none;" d="M42 468L42 489L43 489L42 468z"/>
<path style="fill:#fdbf00; stroke:none;" d="M43 468L43 489C51.3235 488.999 71.2818 479.919 57.6968 469.938C53.8297 467.097 47.5069 468 43 468z"/>
<path style="fill:#7992bd; stroke:none;" d="M57 468L62 473L57 468z"/>
<path style="fill:#33a45f; stroke:none;" d="M347 468L347 489L348 489L347 468z"/>
<path style="fill:#bab620; stroke:none;" d="M348 468L348 489L349 489L348 468z"/>
<path style="fill:#fdbf00; stroke:none;" d="M349 468L349 489L353 489L353 481C358.1 480.735 368.275 474.496 360.566 469.179C357.579 467.119 352.441 468 349 468z"/>
<path style="fill:#baa39e; stroke:none;" d="M362 469L362 471L364 471L364 469L362 469z"/>
<path style="fill:#7c9c96; stroke:none;" d="M83 470L83 471L89 471L83 470z"/>
<path style="fill:#f8bc32; stroke:none;" d="M357 478L357 477L353 471L357 471C350.408 468.496 349.578 477.146 357 478z"/>
<path style="fill:#7c9c96; stroke:none;" d="M422 472L428 471L422 472z"/>
<path style="fill:#83989f; stroke:none;" d="M71 471L71 472L76 472L71 471z"/>
<path style="fill:#83a949; stroke:none;" d="M83 471L83 476L84 476L83 471z"/>
<path style="fill:#dfb25d; stroke:none;" d="M84 471L84 472L88 472L88 476L84 476L84 477L89 477L89 471L84 471z"/>
<path style="fill:#d1a0a4; stroke:none;" d="M89 471L89 476L90 476L89 471z"/>
<path style="fill:#8192bd; stroke:none;" d="M90 471L89 477L90 471z"/>
<path style="fill:#d9af71; stroke:none;" d="M353 471L353 472L357 472L353 471z"/>
<path style="fill:#f0b44c; stroke:none;" d="M363 471L363 476L364 476L363 471z"/>
<path style="fill:#d8a98a; stroke:none;" d="M364 471L362 479C365.076 477.006 365.383 474.332 364 471z"/>
<path style="fill:#8497a2; stroke:none;" d="M371 471L371 472L376 472L371 471z"/>
<path style="fill:#84989f; stroke:none;" d="M379 471L379 472L385 472L379 471M405 471L405 472L411 472L405 471M413 471L413 472L419 472L413 471z"/>
<path style="fill:#2d987b; stroke:none;" d="M421 471L421 476L422 476L421 471z"/>
<path style="fill:#f1ae97; stroke:none;" d="M423 471L423 472L427 472L427 476L428 476L428 471L423 471z"/>
<path style="fill:#899ab4; stroke:none;" d="M428 471L427 477L428 471z"/>
<path style="fill:#fdbf39; stroke:none;" d="M46 472L46 484L47 484L46 472z"/>
<path style="fill:#dea887; stroke:none;" d="M47 472L49 485L47 472z"/>
<path style="fill:#a495bd; stroke:none;" d="M48 472L48 484L49 484L48 472z"/>
<path style="fill:#2d8abd; stroke:none;" d="M49 472L49 484C54.7336 482.621 55.9338 479.588 56 474L49 472z"/>
<path style="fill:#e7ad7c; stroke:none;" d="M60 472L61 481L62 481L60 472z"/>
<path style="fill:#dab42c; stroke:none;" d="M66 475L76 473C72.3526 471.473 68.3711 471.644 66 475z"/>
<path style="fill:#c9a689; stroke:none;" d="M76 472L76 473L80 475L76 472z"/>
<path style="fill:#fdbf1f; stroke:none;" d="M84 472L84 476L88 476L88 472L84 472z"/>
<path style="fill:#cb9bb2; stroke:none;" d="M353 472L353 476L354 476L353 472z"/>
<path style="fill:#729b8c; stroke:none;" d="M354 472L354 477C357.474 476.423 358.423 475.474 359 472L354 472z"/>
<path style="fill:#f1b544; stroke:none;" d="M370 472L370 473L378 475L379 475L383 473L383 489L384 489L384 472L370 472z"/>
<path style="fill:#dba3bd; stroke:none;" d="M384 472L384 489L385 489L384 472z"/>
<path style="fill:#6993bd; stroke:none;" d="M385 472L385 489L386 489L385 472z"/>
<path style="fill:#2da266; stroke:none;" d="M387 472L387 489L388 489L387 472z"/>
<path style="fill:#aab427; stroke:none;" d="M388 472L388 489L389 489L388 472z"/>
<path style="fill:#fdbf00; stroke:none;" d="M389 472L389 489L392 489C392.001 483.232 391.384 478.38 398 477L398 473L389 472z"/>
<path style="fill:#cdac5b; stroke:none;" d="M393 474L398 473L398 477L399 477L399 472L393 474z"/>
<path style="fill:#b8a593; stroke:none;" d="M399 472L399 477L394 477L394 478L402 476L402 475L399 472z"/>
<path style="fill:#dbb42c; stroke:none;" d="M402 476L411 473C407.084 471.376 404.035 472.309 402 476z"/>
<path style="fill:#e0ae77; stroke:none;" d="M411 472L411 474L413 474L413 472L411 472z"/>
<path style="fill:#fdba3b; stroke:none;" d="M413 474L417 473L417 489L418 489L418 472L413 474z"/>
<path style="fill:#f3b195; stroke:none;" d="M418 472L418 489L419 489L418 472z"/>
<path style="fill:#6c96b0; stroke:none;" d="M419 472L419 489L420 489L419 472z"/>
<path style="fill:#b1ab61; stroke:none;" d="M422 472L422 477L427 477L427 476L423 476L422 472z"/>
<path style="fill:#fabb27; stroke:none;" d="M423 472L423 476L427 476L427 472L423 472z"/>
<path style="fill:#8da65c; stroke:none;" d="M53.6667 473.333L54.3333 473.667L53.6667 473.333z"/>
<path style="fill:#c6a29a; stroke:none;" d="M62 473C61.9212 480.065 59.3734 484.666 53 488L53 489C60.4318 487.496 65.0548 480.283 62 473z"/>
<path style="fill:#fdbf00; stroke:none;" d="M80 483C75.1779 483.361 70.9033 487.205 69 481L80 481C79.7035 471.944 66.4243 469.543 65.1628 479.015C63.7898 489.325 76.7772 492.497 80 483z"/>
<path style="fill:#2d8abd; stroke:none;" d="M355 473L355 476L358 476L358 473L355 473z"/>
<path style="fill:#fdbf00; stroke:none;" d="M383 489L383 473L379 475C370.273 470.8 360.865 479.385 368.742 487.258C371.424 489.937 379.248 488.547 383 489M413 487L417 489L417 473C412.444 473.38 405.989 471.9 402.603 475.724C395.561 483.676 405.592 490.135 413 487z"/>
<path style="fill:#7ba54f; stroke:none;" d="M56 475L56 481L57 481L56 475z"/>
<path style="fill:#96aa3b; stroke:none;" d="M64 475L64 484L65 484L66 475L64 475z"/>
<path style="fill:#d1b14a; stroke:none;" d="M70 477L75 476L70 477z"/>
<path style="fill:#fdbe5a; stroke:none;" d="M80 475L80 481L81 481L80 475z"/>
<path style="fill:#74ad40; stroke:none;" d="M366 475L366 486L367 486L366 475z"/>
<path style="fill:#939e9a; stroke:none;" d="M71 476L71 477L75 477L71 476z"/>
<path style="fill:#d8a493; stroke:none;" d="M81 476L81 481L82 481L81 476z"/>
<path style="fill:#e7af76; stroke:none;" d="M371 483L372 483C372.568 479.418 373.508 478.057 377 477C372.177 475.168 371.137 478.836 371 483z"/>
<path style="fill:#f8b758; stroke:none;" d="M405 483L406 483C406.568 479.418 407.508 478.057 411 477C406.177 475.168 405.137 478.836 405 483z"/>
<path style="fill:#c9ac64; stroke:none;" d="M69 477C69.909 481.242 76.0911 481.242 77 477L69 477z"/>
<path style="fill:#869b9e; stroke:none;" d="M70 477L75 479L75 478L70 477z"/>
<path style="fill:#348abd; stroke:none;" d="M71 477L71 478L75 478L71 477z"/>
<path style="fill:#9991bd; stroke:none;" d="M82 477L82 481L83 481L82 477z"/>
<path style="fill:#2d8abd; stroke:none;" d="M373 477C373.397 489.106 383.785 477.84 373 477M407 477L407 484C411.89 483.619 412.845 481.724 413 477L407 477z"/>
<path style="fill:#a194bd; stroke:none;" d="M372 478L374 484L372 478z"/>
<path style="fill:#bbb51f; stroke:none;" d="M379 478L379 483L380 483L379 478z"/>
<path style="fill:#f2b756; stroke:none;" d="M392 478L392 489L393 489L394 478L392 478z"/>
<path style="fill:#7b91bd; stroke:none;" d="M394 478L394 489L395 489L395 479L400 479L394 478z"/>
<path style="fill:#6f9e5b; stroke:none;" d="M400 478L400 484L401 484L400 478z"/>
<path style="fill:#bca2b1; stroke:none;" d="M406 478L406 483L407 483L406 478z"/>
<path style="fill:#f3b95a; stroke:none;" d="M358 480L358 481L362 480L358 480z"/>
<path style="fill:#cf9ea9; stroke:none;" d="M393 479L393 489L394 489L393 479z"/>
<path style="fill:#84a06e; stroke:none;" d="M69 481L70 484L81 482L69 481z"/>
<path style="fill:#6291a6; stroke:none;" d="M75 482L75 483L81 483L75 489L75 490L82 489L83 489L84 483L83 481L75 482z"/>
<path style="fill:#84a06e; stroke:none;" d="M353 481L353 482L361 482L353 481z"/>
<path style="fill:#a4a958; stroke:none;" d="M52 484L55 482L52 484z"/>
<path style="fill:#f9b947; stroke:none;" d="M69 482L74 486L74 485L69 482z"/>
<path style="fill:#308abd; stroke:none;" d="M71 482L71 484L75 484L75 482L71 482z"/>
<path style="fill:#cb9bb2; stroke:none;" d="M353 482L353 489L354 489L353 482z"/>
<path style="fill:#7090bd; stroke:none;" d="M354 482L354 489L355 489L354 482z"/>
<path style="fill:#efb096; stroke:none;" d="M80 483L80 486L81 486L80 483z"/>
<path style="fill:#a4a292; stroke:none;" d="M84 483L84 484L89 484L84 483z"/>
<path style="fill:#899ab4; stroke:none;" d="M422 485L428 484L428 489L429 489L429 483L422 485z"/>
<path style="fill:#7da557; stroke:none;" d="M65.3333 484.667L65.6667 485.333L65.3333 484.667z"/>
<path style="fill:#939f89; stroke:none;" d="M71 484L71 485L75 485L71 484z"/>
<path style="fill:#83a947; stroke:none;" d="M83 484L83 489L84 489L83 484z"/>
<path style="fill:#f5b951; stroke:none;" d="M84 484L84 485L88 485L88 489L89 489L89 484L84 484z"/>
<path style="fill:#d2a0a4; stroke:none;" d="M89 484L89 489L90 489L89 484z"/>
<path style="fill:#9aa754; stroke:none;" d="M373 484L373 485L378 485L373 484z"/>
<path style="fill:#9aa56e; stroke:none;" d="M408 484L408 485L411 485L408 484z"/>
<path style="fill:#fcbf00; stroke:none;" d="M423 484L423 489L427 489L427 484L423 484z"/>
<path style="fill:#f2ae96; stroke:none;" d="M427 484L427 489L428 489L427 484z"/>
<path style="fill:#e4b917; stroke:none;" d="M84 485L84 489L88 489L88 485L84 485z"/>
<path style="fill:#2d987b; stroke:none;" d="M421 485L421 489L422 489L421 485z"/>
<path style="fill:#aab12c; stroke:none;" d="M422 485L422 489L423 489L422 485z"/>
<path style="fill:#e8b25c; stroke:none;" d="M75 488L75 489L80 486L75 488z"/>
<path style="fill:#75b4d1; stroke:none;" d="M97 487L97 488L326 488L326 492L327 492L327 487L97 487z"/>
<path style="fill:#ddad5e; stroke:none;" d="M376 489L379 488L376 489z"/>
<path style="fill:#9caa49; stroke:none;" d="M402.667 487.333L403.333 487.667L402.667 487.333z"/>
<path style="fill:#c3a498; stroke:none;" d="M410 489L413 487L410 489z"/>
<path style="fill:#62a8cb; stroke:none;" d="M96 488L96 492L97 492L96 488z"/>
<path style="fill:#c6e2e7; stroke:none;" d="M97 488L97 492L326 492L326 488L97 488z"/>
<path style="fill:#5d9691; stroke:none;" d="M43 489L43 490L55 490L43 489z"/>
<path style="fill:#919c8c; stroke:none;" d="M69 489L69 490L75 490L69 489z"/>
<path style="fill:#5d9691; stroke:none;" d="M83 489L83 490L89 490L83 489M348 489L348 490L353 490L348 489z"/>
<path style="fill:#869a92; stroke:none;" d="M370 489L370 490L376 490L370 489z"/>
<path style="fill:#5d9691; stroke:none;" d="M379 489L379 490L384 490L379 489M388 489L388 490L393 490L388 489z"/>
<path style="fill:#539591; stroke:none;" d="M404 489L404 490L418 490L404 489z"/>
<path style="fill:#5d9691; stroke:none;" d="M422 489L422 490L427 490L422 489z"/>
<path style="fill:#8fc2d8; stroke:none;" d="M433 489L433 494L663 494L663 489L433 489z"/>
<path style="fill:#c6e2e7; stroke:none;" d="M434 490L434 493L662 493L662 490L434 490z"/>
<path style="fill:#59a3c9; stroke:none;" d="M97 492L97 493L327 493L306 492L259 492L97 492z"/>
<path style="fill:#72b2d0; stroke:none;" d="M41 601L41 610L1016 610L1016 609L42 609L42 602L1016 602L990 601L933 601L733 601L41 601z"/>
<path style="fill:#c6e2e7; stroke:none;" d="M42 602L42 609L1016 609L1016 602L42 602z"/>
<path style="fill:#64aacc; stroke:none;" d="M1016 602L1016 609L1017 609L1016 602z"/>
<path style="fill:#84bcd5; stroke:none;" d="M41 680L41 688L42 688L42 681L1016 681L1016 688L1017 688L1017 680L41 680z"/>
<path style="fill:#c6e2e7; stroke:none;" d="M42 681L42 688L1016 688L1016 681L42 681z"/>
<path style="fill:#53a0c7; stroke:none;" d="M41 688L41 689L1016 689L990 688L933 688L733 688L41 688z"/>
<path style="fill:#4095c2; stroke:none;" d="M41 758L41 759L1016 759L990 758L933 758L733 758L41 758z"/>
<path style="fill:#a3cedd; stroke:none;" d="M41 759L41 767L1016 767L1016 766L42 766L42 760L1016 760L990 759L933 759L733 759L41 759z"/>
<path style="fill:#64aacc; stroke:none;" d="M1016 759L1016 767L1017 767L1016 759z"/>
<path style="fill:#c6e2e7; stroke:none;" d="M42 760L42 766L1016 766L1016 760L42 760z"/>
<path style="fill:#5fa7cb; stroke:none;" d="M41 837L41 838L1016 838L990 837L933 837L733 837L41 837z"/>
<path style="fill:#78b5d2; stroke:none;" d="M41 838L41 846L1016 846L1016 845L42 845L41 838z"/>
<path style="fill:#c6e2e7; stroke:none;" d="M42 838L42 845L1016 845L1016 838L42 838z"/>
<path style="fill:#64aacc; stroke:none;" d="M1016 838L1016 845L1017 845L1016 838z"/>
<path style="fill:#7eb8d3; stroke:none;" d="M41 916L41 924L42 924L42 917L1016 917L1016 924L1017 924L1017 916L41 916z"/>
<path style="fill:#c6e2e7; stroke:none;" d="M42 917L42 924L1016 924L1016 917L42 917z"/>
<path style="fill:#59a3c9; stroke:none;" d="M41 924L41 925L1016 925L990 924L933 924L733 924L41 924z"/>
<path style="fill:#85bbd9; stroke:none;" d="M514 991L516 995L512 995L513 999L519 1000L520 997C516.888 996.591 517.407 994.743 518 992L514 991z"/>
<path style="fill:#f3f8fb; stroke:none;" d="M517 993L518 998L524 995L524 994L517 993z"/>
<path style="fill:#86bbd9; stroke:none;" d="M518 993L518 994L525 995L518 993z"/>
<path style="fill:#9cc8e0; stroke:none;" d="M487 997L487 998L494 998L487 997z"/>
<path style="fill:#7db7d6; stroke:none;" d="M482 1001L486 999L482 1001z"/>
<path style="fill:#ffffff; stroke:none;" d="M478 1015C487.268 1014.78 494.628 1007.39 498 999C485.004 995.158 478.001 1002.68 478 1015z"/>
<path style="fill:#abd0e4; stroke:none;" d="M498 1006L502 1006L509 998L498 1006z"/>
<path style="fill:#509ec8; stroke:none;" d="M478 1015L479 1018C489.85 1015.19 492.558 1009.2 501 1003L501 1001L500 1000C491.277 1004.23 488.859 1014.41 478 1015z"/>
<path style="fill:#a1cbe2; stroke:none;" d="M480 1001L480 1003L482 1001L480 1001z"/>
<path style="fill:#55a0c9; stroke:none;" d="M570 1024L571 1024L571 1004L574 1004L574 1011L578 1011L578 1010L575 1010C574.971 1007.56 572.296 998.452 570.317 1005.15C568.685 1010.68 570 1018.25 570 1024z"/>
<path style="fill:#529ec9; stroke:none;" d="M503 1003L489 1019L489 1020C497.066 1021.14 498.761 1011.18 505 1008L503 1006L503 1005L505 1003L503 1003z"/>
<path style="fill:#76b3d4; stroke:none;" d="M565 1003L565 1024L566 1024L566 1004L569 1005L565 1003z"/>
<path style="fill:#a3cce2; stroke:none;" d="M477 1004L477 1015L478 1015L479 1004L477 1004z"/>
<path style="fill:#fafcfd; stroke:none;" d="M500 1004L486 1017L486 1018C492.362 1017.79 501.471 1011.19 500 1004z"/>
<path style="fill:#55a0ca; stroke:none;" d="M508 1004L508 1015L509 1015L510 1005L513 1005L513 1009L514 1009L514 1004L508 1004z"/>
<path style="fill:#8fc0dc; stroke:none;" d="M545 1012L546 1012L549 1004C544.954 1005.34 545.047 1008.07 545 1012z"/>
<path style="fill:#d5e8f2; stroke:none;" d="M566 1004L566 1024L568 1024L568 1004L566 1004z"/>
<path style="fill:#8fc1dc; stroke:none;" d="M571 1004L571 1024L572 1024L571 1004z"/>
<path style="fill:#e4f0f6; stroke:none;" d="M572 1004L572 1024L573 1024L572 1004z"/>
<path style="fill:#b1d3e6; stroke:none;" d="M573 1004L574 1014L577 1014L578 1011L574 1011L573 1004z"/>
<path style="fill:#b5d6e7; stroke:none;" d="M510 1005L510 1024L511 1024L511 1016L513 1016L514 1025L520 1006L520 1005C515.48 1006.32 516.014 1010.92 516 1015L515 1015L514 1009L513 1009L513 1013L512 1013C510.956 1009.87 509.782 1006.2 513 1007L510 1005z"/>
<path style="fill:#99c6df; stroke:none;" d="M553 1005L553 1009L554 1009L556 1006L556 1012L557 1012L557 1005L553 1005z"/>
<path style="fill:#9ec9e1; stroke:none;" d="M560 1005L560 1009L563 1009L563 1005L560 1005z"/>
<path style="fill:#a2cbe2; stroke:none;" d="M568 1005L566 1024L566 1025C570.861 1023.96 570.152 1008.73 568 1005z"/>
<path style="fill:#f7fafc; stroke:none;" d="M511 1006L512 1013L513 1013L511 1006z"/>
<path style="fill:#dfedf5; stroke:none;" d="M518 1006L520 1024L521 1024L521 1006L518 1006z"/>
<path style="fill:#bcdaea; stroke:none;" d="M546 1006L544 1025L547 1025L549 1015L550 1015L552 1017L549 1006L546 1006z"/>
<path style="fill:#dcebf4; stroke:none;" d="M554 1006L552 1017L550 1015L549 1015L550 1024L552 1024L554 1016L555 1016L555 1024L557 1024L556 1006L554 1006z"/>
<path style="fill:#acd1e5; stroke:none;" d="M501 1011L504 1009L504 1013L505 1013L505 1008L501 1011z"/>
<path style="fill:#ffffff; stroke:none;" d="M503 1009C498.19 1015.73 495.035 1022.18 486 1023L486 1024C494.37 1024 507.844 1020.68 503 1009z"/>
<path style="fill:#6badd1; stroke:none;" d="M594 1012L598 1011L594 1012z"/>
<path style="fill:#9dc8e0; stroke:none;" d="M521 1011L521 1024L522 1024L521 1011z"/>
<path style="fill:#d6e8f2; stroke:none;" d="M532 1024L532 1011C521.245 1011.13 521.377 1023.87 532 1024z"/>
<path style="fill:#69abd0; stroke:none;" d="M532 1011L533 1024L526 1024L526 1025L543 1025L543 1021L542 1021L542 1024L539 1022L538 1022L535 1024L535 1011L532 1011z"/>
<path style="fill:#e5f0f7; stroke:none;" d="M535 1011L535 1024L538 1022L539 1022L542 1024L541 1012L535 1011z"/>
<path style="fill:#90c1dc; stroke:none;" d="M540 1011L543 1014L540 1011z"/>
<path style="fill:#bddaea; stroke:none;" d="M582 1023L583 1023L583 1013L584 1013L584 1021L585 1021L585 1014L590 1013C581.774 1008.17 582 1017.24 582 1023z"/>
<path style="fill:#92c2dd; stroke:none;" d="M587 1011L587 1012L590 1012L590 1024L583 1024L583 1025L591 1025L591 1011L587 1011z"/>
<path style="fill:#e2eff6; stroke:none;" d="M594 1023L594 1024L598 1024L598 1011C588.129 1012.72 599.065 1020.02 594 1023z"/>
<path style="fill:#8dc0db; stroke:none;" d="M598 1011L595 1016L596 1016L598 1011z"/>
<path style="fill:#deedf5; stroke:none;" d="M499 1012C495.715 1018.33 491.139 1021.67 484 1022L484 1025L496 1025L496 1024L486 1024L486 1023C493.607 1022.65 497.972 1018.88 501 1012L499 1012z"/>
<path style="fill:#77b4d5; stroke:none;" d="M514 1012L516 1015L514 1012z"/>
<path style="fill:#9bc7e0; stroke:none;" d="M532 1012L532 1024L533 1024L532 1012z"/>
<path style="fill:#a5cde3; stroke:none;" d="M560 1012L560 1025L563 1025L563 1012L562 1012L562 1024L561 1024L560 1012z"/>
<path style="fill:#d2e5f1; stroke:none;" d="M561 1012L561 1024L562 1024L561 1012z"/>
<path style="fill:#e6f1f7; stroke:none;" d="M577 1012L578 1024L579 1024L577 1012z"/>
<path style="fill:#acd1e5; stroke:none;" d="M579 1012L579 1024L578 1024L578 1014L577 1014L577 1025L580 1025L579 1012z"/>
<path style="fill:#73b1d3; stroke:none;" d="M581 1013L581 1021L582 1021L581 1013z"/>
<path style="fill:#dcebf4; stroke:none;" d="M583 1013L583 1024L590 1024L588 1013C590.312 1023.18 585.74 1019.45 583 1013z"/>
<path style="fill:#8ec0dc; stroke:none;" d="M526 1014L526 1021L527 1021L526 1014z"/>
<path style="fill:#4d9bc7; stroke:none;" d="M527 1014L527 1022L530 1014L527 1014z"/>
<path style="fill:#2d8abd; stroke:none;" d="M534 1014L534 1021L535 1021L536 1014L534 1014z"/>
<path style="fill:#b1d3e6; stroke:none;" d="M573 1014L573 1024L574 1024L573 1014z"/>
<path style="fill:#318cbe; stroke:none;" d="M585 1014L586 1022L587 1022L588 1014L585 1014z"/>
<path style="fill:#99c7df; stroke:none;" d="M588 1014L588 1021L589 1021L588 1014z"/>
<path style="fill:#81b9d8; stroke:none;" d="M508 1015C508 1018.77 506.587 1024.05 511 1025L511 1024L508 1015z"/>
<path style="fill:#5ea6cc; stroke:none;" d="M518 1015L517 1023L519 1023L518 1015z"/>
<path style="fill:#64a9ce; stroke:none;" d="M522 1015L520 1024L520 1025C524.232 1024.09 523.936 1018.78 524 1015L522 1015z"/>
<path style="fill:#82bad8; stroke:none;" d="M536 1015L536 1020L537 1020L536 1015z"/>
<path style="fill:#8ec0db; stroke:none;" d="M540 1015L540 1019L541 1019L540 1015z"/>
<path style="fill:#d0e5f0; stroke:none;" d="M483 1019L490 1019L490 1018L486 1018L486 1017L488 1017L483 1019z"/>
<path style="fill:#a2cbe2; stroke:none;" d="M503 1016L501 1021L502 1021L503 1016z"/>
<path style="fill:#6bacd0; stroke:none;" d="M511 1016L511 1024L512 1024L513 1016L511 1016z"/>
<path style="fill:#aad0e5; stroke:none;" d="M519 1016L519 1024L520 1024L519 1016z"/>
<path style="fill:#60a7cd; stroke:none;" d="M554 1016L552 1024L555 1024L554 1016z"/>
<path style="fill:#92c2dd; stroke:none;" d="M480 1017L480 1018L489 1020L489 1019L480 1017z"/>
<path style="fill:#fbfdfe; stroke:none;" d="M514 1017L515 1023L516 1023L516 1017L514 1017z"/>
<path style="fill:#59a2cb; stroke:none;" d="M547 1017L547 1024L550 1024L547 1017z"/>
<path style="fill:#f6fafd; stroke:none;" d="M509 1019L509 1024L510 1024L509 1019z"/>
<path style="fill:#a0cae1; stroke:none;" d="M598 1019L598 1023L599 1023L598 1019z"/>
<path style="fill:#80b8d7; stroke:none;" d="M596 1020L592 1022C593.328 1025.3 594.566 1025.8 598 1025L598 1024L594 1024L594 1023C596.251 1022.53 597.118 1022.14 596 1020z"/>
<path style="fill:#89bdda; stroke:none;" d="M482 1023L490 1022L482 1023z"/>
<path style="fill:#58a2cb; stroke:none;" d="M496 1025L501 1021L496 1025z"/>
<path style="fill:#73b1d3; stroke:none;" d="M486 1025L486 1026L494 1026L486 1025z"/>
</svg>
